<?xml version="1.0" standalone="no"?><!DOCTYPE svg PUBLIC "-//W3C//DTD SVG 1.1//EN" "http://www.w3.org/Graphics/SVG/1.1/DTD/svg11.dtd"><svg t="1715519903042" class="icon" viewBox="0 0 1024 1024" version="1.1" xmlns="http://www.w3.org/2000/svg" p-id="9104" xmlns:xlink="http://www.w3.org/1999/xlink" width="16" height="16"><path d="M512 927c-55.9 0-110.1-11-161.2-32.5-49.3-20.9-93.6-50.7-131.6-88.7s-67.9-82.3-88.7-131.6C109 623.1 98 568.9 98 513s11-110.1 32.5-161.2c20.9-49.3 50.7-93.6 88.7-131.6s82.3-67.9 131.6-88.7C401.9 110 456.1 99 512 99s110.1 11 161.2 32.5c49.3 20.9 93.6 50.7 131.6 88.7s67.9 82.3 88.7 131.6C915 402.9 926 457.1 926 513s-11 110.1-32.5 161.2c-20.9 49.3-50.7 93.6-88.7 131.6s-82.3 67.9-131.6 88.7C622.1 916 567.9 927 512 927z m0-763.1c-192.5 0-349.1 156.6-349.1 349.1 0 192.5 156.6 349.1 349.1 349.1 192.5 0 349.1-156.6 349.1-349.1 0-192.5-156.6-349.1-349.1-349.1z" fill="#515151" p-id="9105"></path><path d="M357.5 721.3h-5.7c-25 0-45.4-20.4-45.4-45.4v-6.3l92.4-230.4c3.3-18.6 18-33.3 36.6-36.6l230.4-92.4h6.3c25 0 45.4 20.4 45.4 45.4v5.7l-85.4 237.1c-3.1 19.2-18.3 34.4-37.5 37.5l-237.1 85.4zM459.2 463l-71.6 178.5 183.9-66.3 66.3-183.9L459.2 463z" fill="#515151" p-id="9106"></path></svg>