<?xml version="1.0" standalone="no"?><!DOCTYPE svg PUBLIC "-//W3C//DTD SVG 1.1//EN" "http://www.w3.org/Graphics/SVG/1.1/DTD/svg11.dtd"><svg t="1715517428076" class="icon" viewBox="0 0 1024 1024" version="1.1" xmlns="http://www.w3.org/2000/svg" p-id="7026" xmlns:xlink="http://www.w3.org/1999/xlink" width="16" height="16"><path d="M717.35 372.34h-41.97c-6.63 0-12-5.37-12-12s5.37-12 12-12h41.97c6.63 0 12 5.37 12 12s-5.37 12-12 12zM794.26 372.34h-24.38c-6.63 0-12-5.37-12-12s5.37-12 12-12h24.38c14.7 0 26.67-11.96 26.67-26.67v-62.44c0-6.63 5.37-12 12-12s12 5.37 12 12v62.44c0 27.94-22.73 50.67-50.67 50.67zM367.86 144.23c18.75 0 34 15.25 34 34v223.86H178c-18.75 0-34-15.25-34-34V144.23h223.86m0-46H98v269.86c0 44.18 35.82 80 80 80h269.86V178.23c0-44.19-35.81-80-80-80z" fill="#4C6085" p-id="7027"></path><path d="M879.75 144.23v223.86c0 18.75-15.25 34-34 34H621.89V178.23c0-18.75 15.25-34 34-34h223.86m46-46H655.89c-44.18 0-80 35.82-80 80v269.86h269.86c44.18 0 80-35.82 80-80V98.23zM401.86 622.17v223.86c0 18.75-15.25 34-34 34H144V656.17c0-18.75 15.25-34 34-34h223.86m46-46H178c-44.18 0-80 35.82-80 80v269.86h269.86c44.18 0 80-35.82 80-80V576.17z" fill="#36F1CD" p-id="7028"></path><path d="M845.75 622.17c18.75 0 34 15.25 34 34v223.86H655.89c-18.75 0-34-15.25-34-34V622.17h223.86m0-46H575.89v269.86c0 44.18 35.82 80 80 80h269.86V656.17c0-44.19-35.82-80-80-80z" fill="#39A0ED" p-id="7029"></path></svg>