<?xml version="1.0" standalone="no"?><!DOCTYPE svg PUBLIC "-//W3C//DTD SVG 1.1//EN" "http://www.w3.org/Graphics/SVG/1.1/DTD/svg11.dtd"><svg t="1719474767578" class="icon" viewBox="0 0 1024 1024" version="1.1" xmlns="http://www.w3.org/2000/svg" p-id="2481" xmlns:xlink="http://www.w3.org/1999/xlink" width="200" height="200"><path d="M512 967.68c-2.438095 0-4.632381-0.731429-6.826667-1.950476-11.702857-7.801905-289.889524-193.340952-328.167619-292.571429-65.828571-170.179048-53.638095-408.380952-52.906666-418.377143 0-9.508571 0-40.71619 180.175238-122.63619 80.457143-36.571429 183.100952-75.824762 207.725714-75.824762s127.268571 39.253333 207.725714 75.824762c180.419048 81.92 180.419048 113.127619 180.419048 123.367619 0.487619 9.264762 12.678095 247.466667-52.906667 417.645714-38.278095 98.986667-316.464762 284.769524-328.167619 292.571429-2.438095 1.219048-4.632381 1.950476-7.070476 1.950476z m0-886.979048c-14.384762 0-98.011429 28.281905-196.022857 72.899048-135.801905 61.44-167.009524 94.354286-167.497143 101.912381-0.24381 2.925714-12.434286 243.565714 51.44381 408.868571C232.106667 748.251429 468.845714 911.36 512 940.860952c43.154286-29.257143 279.893333-192.609524 312.32-276.48 63.878095-165.302857 51.44381-405.699048 51.44381-408.137142-0.487619-8.045714-31.939048-40.96-167.497143-102.64381-98.255238-44.617143-181.881905-72.899048-196.266667-72.899048z" p-id="2482" fill="#bd1b06"></path><path d="M205.04381 413.013333c-3.900952-66.072381-1.219048-114.590476-1.219048-116.784762 0-55.344762 288.426667-162.377143 308.175238-162.377142 20.23619 0 101.424762 31.939048 164.815238 61.44l-10.24 22.186666C590.262857 181.881905 522.971429 158.232381 512 158.232381c-37.302857 0-277.699048 110.445714-283.794286 138.971429 0 0.731429-2.438095 49.737143 1.219048 114.346666l-24.380952 1.462857z" p-id="2483" fill="#bd1b06"></path><path d="M216.990476 424.472381a12.434286 12.434286 0 0 1-12.190476-11.459048c-3.900952-66.072381-1.219048-114.590476-1.219048-116.784762 0-55.344762 288.426667-162.377143 308.175238-162.377142 20.23619 0 101.424762 31.939048 164.815239 61.44 6.095238 2.925714 8.777143 9.99619 5.851428 16.091428-2.925714 6.095238-9.99619 8.777143-16.091428 5.851429-76.068571-35.352381-143.36-59.001905-154.331429-59.001905-37.302857 0-277.699048 110.445714-283.794286 138.971429 0 0.731429-2.438095 49.737143 1.219048 114.346666 0.487619 6.826667-4.632381 12.434286-11.459048 12.921905H216.990476zM512 876.495238l-6.826667-4.632381c-5.12-3.657143-128.731429-87.771429-204.55619-163.84l17.310476-17.310476c64.121905 64.365714 166.765714 137.264762 194.072381 156.038095 66.31619-45.83619 221.379048-162.133333 243.565714-220.891428 14.384762-38.278095 25.35619-85.333333 32.426667-139.946667l24.137143 3.169524c-7.314286 56.32-18.529524 105.325714-33.645714 145.310476-30.47619 80.700952-250.148571 230.887619-259.413334 237.226667l-7.070476 4.87619z" p-id="2484" fill="#bd1b06"></path><path d="M512 873.813333c-2.438095 0-4.87619-0.731429-6.826667-2.194285-5.12-3.657143-128.731429-87.771429-204.55619-163.84a12.507429 12.507429 0 0 1 0-17.310477c4.87619-4.87619 12.434286-4.87619 17.310476 0 64.121905 64.365714 166.765714 137.264762 194.072381 156.038096 66.31619-45.83619 221.379048-162.133333 243.565714-220.891429 14.384762-38.278095 25.35619-85.333333 32.426667-139.946667a12.434286 12.434286 0 0 1 13.653333-10.483809c6.582857 0.975238 11.459048 7.070476 10.48381 13.653333-7.314286 56.32-18.529524 105.325714-33.645714 145.310476-30.47619 80.700952-250.148571 230.887619-259.413334 237.226667-2.194286 1.706667-4.632381 2.438095-7.070476 2.438095zM512 430.08c-45.348571 0-82.16381-40.96-82.16381-91.184762s36.815238-91.184762 82.16381-91.184762 82.16381 40.96 82.16381 91.184762-36.815238 91.184762-82.16381 91.184762z m0-157.988571c-31.939048 0-57.782857 29.988571-57.782857 66.803809 0 36.815238 26.087619 66.80381 57.782857 66.80381s57.782857-29.988571 57.782857-66.80381c0-36.815238-25.84381-66.80381-57.782857-66.803809z" p-id="2485" fill="#bd1b06"></path><path d="M667.062857 651.702857H356.937143c-6.826667 0-12.190476-5.36381-12.190476-12.190476v-86.308571c0-57.295238 73.386667-102.15619 167.253333-102.156191s167.253333 44.860952 167.253333 102.156191v86.308571c0 6.826667-5.36381 12.190476-12.190476 12.190476z m-297.935238-24.380952h285.744762v-74.118095c0-42.179048-65.340952-77.775238-142.872381-77.775239s-142.872381 35.59619-142.872381 77.775239v74.118095z" p-id="2486" fill="#bd1b06"></path><path d="M430.811429 651.702857c-6.826667 0-12.190476-5.36381-12.190477-12.190476v-50.712381c0-6.826667 5.36381-12.190476 12.190477-12.190476s12.190476 5.36381 12.190476 12.190476v50.712381c0 6.826667-5.36381 12.190476-12.190476 12.190476z" p-id="2487" fill="#bd1b06"></path><path d="M589.531429 651.702857c-6.826667 0-12.190476-5.36381-12.190477-12.190476v-50.712381c0-6.826667 5.36381-12.190476 12.190477-12.190476s12.190476 5.36381 12.190476 12.190476v50.712381c0 6.826667-5.36381 12.190476-12.190476 12.190476z" p-id="2488" fill="#bd1b06"></path><path d="M499.809524 510.049524h24.380952v66.803809h-24.380952z" p-id="2489" fill="#bd1b06"></path><path d="M512 589.287619c-6.826667 0-12.190476-5.36381-12.190476-12.190476v-66.80381c0-6.826667 5.36381-12.190476 12.190476-12.190476s12.190476 5.36381 12.190476 12.190476v66.80381c0 6.582857-5.36381 12.190476-12.190476 12.190476z" p-id="2490" fill="#bd1b06"></path></svg>