<?xml version="1.0" standalone="no"?><!DOCTYPE svg PUBLIC "-//W3C//DTD SVG 1.1//EN" "http://www.w3.org/Graphics/SVG/1.1/DTD/svg11.dtd"><svg t="1719475269184" class="icon" viewBox="0 0 1024 1024" version="1.1" xmlns="http://www.w3.org/2000/svg" p-id="3627" xmlns:xlink="http://www.w3.org/1999/xlink" width="200" height="200"><path d="M921.112381 570.806857l-105.081905 104.69181a36.571429 36.571429 0 0 1-43.154286 43.008l-234.642285 233.862095a36.571429 36.571429 0 0 1-51.638857 0L100.985905 568.07619Q8.923429 477.866667 12.288 348.647619q3.413333-129.219048 100.059429-214.406095 96.841143-85.333333 224.792381-71.582476 104.984381 11.264 175.445333 83.187809 70.607238-71.192381 175.104-82.115047 127.609905-13.312 224.01219 71.728761 96.353524 84.943238 99.961905 213.723429 3.657143 128.731429-87.673905 219.087238a38.034286 38.034286 0 0 1-2.925714 2.584381z m-81.627429-21.942857l-97.523809-105.813333q-34.230857-37.205333-81.968762-37.205334-47.786667 0-81.968762 37.156572l-48.420571 52.516571q-35.888762 39.009524-87.332572 39.009524-51.492571 0-87.381333-39.009524l-26.331429-28.525714q-23.79581-25.84381-23.795809-61.927619 0-35.986286 23.844571-61.878857L461.775238 198.607238Q408.624762 143.896381 329.337905 135.363048q-95.963429-10.288762-168.618667 53.686857Q87.966476 253.17181 85.382095 350.598095q-2.535619 97.328762 66.80381 165.254095l360.252952 359.033905 82.310095-82.066285-84.211809-84.260572a36.571429 36.571429 0 1 1 51.687619-51.687619l84.358095 84.358095 70.265905-70.119619-60.025905-60.074666a36.571429 36.571429 0 0 1 51.687619-51.687619l60.172191 60.123428 70.802285-70.558476z m-312.07619-313.539048L382.439619 392.728381q-11.361524 12.385524 0 24.722286l26.282667 28.525714q14.140952 15.36 33.596952 15.36 19.407238 0 33.548191-15.36l48.420571-52.516571q55.929905-60.757333 135.753143-60.757334 79.774476 0 135.753143 60.757334l94.841904 102.887619q50.322286-61.830095 47.981715-145.115429-2.730667-97.03619-75.239619-160.914286-72.362667-63.878095-168.033524-53.881904-95.719619 9.99619-153.6 87.430095a36.571429 36.571429 0 0 1-14.238476 11.459047z" fill="#bd1b06" p-id="3628"></path></svg>